<?xml version="1.0" standalone="no"?><!DOCTYPE svg PUBLIC "-//W3C//DTD SVG 1.1//EN" "http://www.w3.org/Graphics/SVG/1.1/DTD/svg11.dtd"><svg t="1646052306828" class="icon" viewBox="0 0 1024 1024" version="1.1" xmlns="http://www.w3.org/2000/svg" p-id="7697" xmlns:xlink="http://www.w3.org/1999/xlink" width="200" height="200"><defs><style type="text/css"></style></defs><path d="M512 85.333333c207.829333 0 377.088 91.733333 383.786667 206.293334L896 298.666667v426.666666c0 117.802667-171.946667 213.333333-384 213.333334s-384-95.530667-384-213.333334V298.666667l0.213333-7.04C134.912 177.066667 304.170667 85.333333 512 85.333333z m298.709333 560.725334C740.309333 694.4 632.661333 725.333333 512 725.333333c-120.661333 0-228.266667-30.890667-298.666667-79.232V725.333333l0.256 5.12C219.861333 798.848 351.061333 853.333333 512 853.333333s292.138667-54.528 298.410667-122.88L810.666667 725.333333l0.042666-79.274666z m0-213.333334C740.309333 481.066667 632.661333 512 512 512c-120.661333 0-228.266667-30.890667-298.666667-79.232V512l0.256 5.12C219.861333 585.514667 351.061333 640 512 640s292.138667-54.528 298.410667-122.88L810.666667 512l0.042666-79.274667zM512 170.666667C340.778667 170.666667 213.333333 241.493333 213.333333 298.666667s127.445333 128 298.666667 128 298.666667-70.826667 298.666667-128-127.445333-128-298.666667-128z" p-id="7698" fill="#ffffff"></path></svg>