<?xml version="1.0" standalone="no"?><!DOCTYPE svg PUBLIC "-//W3C//DTD SVG 1.1//EN" "http://www.w3.org/Graphics/SVG/1.1/DTD/svg11.dtd"><svg t="1646997992848" class="icon" viewBox="0 0 1024 1024" version="1.1" xmlns="http://www.w3.org/2000/svg" p-id="5410" xmlns:xlink="http://www.w3.org/1999/xlink" width="200" height="200"><defs><style type="text/css"></style></defs><path d="M585.728 433.664H880.64v51.2h-294.912v-51.2z" fill="" p-id="5411"></path><path d="M675.328 808.448l-2.56-2.56H93.696c-23.04 0-40.96-17.92-40.96-40.96V229.888c0-23.04 17.92-43.52 40.96-43.52h824.832c23.04 0 40.96 17.92 40.96 40.96v321.024l2.56 2.56c12.8 7.68 25.6 17.92 35.84 30.72l10.24 12.8V217.088c0-43.52-35.84-78.848-79.36-78.848H80.896C37.376 138.24 1.536 174.08 1.536 217.088V778.24c0 43.52 35.84 78.848 79.36 78.848h627.712l-7.68-10.24c-10.24-12.8-17.92-25.6-25.6-38.4z" fill="" p-id="5412"></path><path d="M585.728 546.304h87.04v51.2h-87.04v-51.2zM585.728 324.096H880.64v51.2h-294.912v-51.2zM855.04 553.472c-94.72 0-168.96 73.728-168.96 168.448 0 91.648 76.8 168.448 168.96 168.448 94.72 0 168.96-73.728 168.96-168.448 0-94.208-76.8-168.448-168.96-168.448z m-2.56 270.336c-7.68 7.68-23.04 7.68-33.28 0L747.52 752.64c-7.68-7.68-7.68-23.04 0-30.72s23.04-7.68 33.28 0l56.32 56.32 110.08-107.008c7.68-7.68 23.04-7.68 33.28 0 7.68 7.68 7.68 23.04 0 30.72l-128 121.856zM278.528 265.216h75.776v23.552h151.04v55.808H184.832V614.4c0 39.424-19.968 59.392-59.392 59.392H97.28v-57.856h15.872c8.192 0 12.288-5.12 12.288-15.872v-55.808l-25.088 5.12v-66.56l25.088-5.12V417.792l-25.088-7.168V342.528l25.088 7.168V288.768h153.088v-23.552zM210.432 373.248h269.824v48.64L406.528 504.832v123.904c0 27.648-13.312 41.472-39.424 41.472H267.776v-53.76H327.68c8.192 0 12.288-6.656 12.288-19.968V497.664l53.76-68.608H210.432V373.248z" fill="" p-id="5413"></path></svg>