<?xml version="1.0" standalone="no"?><!DOCTYPE svg PUBLIC "-//W3C//DTD SVG 1.1//EN" "http://www.w3.org/Graphics/SVG/1.1/DTD/svg11.dtd"><svg t="1646997913037" class="icon" viewBox="0 0 1024 1024" version="1.1" xmlns="http://www.w3.org/2000/svg" p-id="4659" xmlns:xlink="http://www.w3.org/1999/xlink" width="200" height="200"><defs><style type="text/css"></style></defs><path d="M241.581 757.942l-24.876 7.217-14.453-8.344-1.709 58.376 10.379 5.992 51.211-29.796-14.364-8.293-6.188-25.152zM848.5 63.5h-672c-35.346 0-64 28.654-64 64v768c0 35.346 28.654 64 64 64h672c35.346 0 64-28.654 64-64v-768c0-35.346-28.654-64-64-64z m-336.507 96.736c8.834-15.301 28.403-20.542 43.709-11.705l55.426 32c15.305 8.837 20.551 28.404 11.717 43.705l-15.996 27.706-110.851-64 15.995-27.706z m-31.992 55.411l110.851 64-15.996 27.705-110.851-64 15.996-27.705zM282.464 808.39l-80.307 42.039c-9.825 5.143-21.662-1.692-22.12-12.771l-3.746-90.567a17.378 17.378 0 0 1 2.314-9.409L448.01 271.058l110.851 64-269.405 466.624a17.39 17.39 0 0 1-6.992 6.708zM816.5 895.5h-400c-17.673 0-32-14.327-32-32s14.327-32 32-32h400c17.673 0 32 14.327 32 32s-14.327 32-32 32z m0-128h-336c-17.673 0-32-14.327-32-32s14.327-32 32-32h336c17.673 0 32 14.327 32 32s-14.327 32-32 32z m0-128h-272c-17.673 0-32-14.327-32-32s14.327-32 32-32h272c17.673 0 32 14.327 32 32s-14.327 32-32 32z" p-id="4660"></path></svg>